<?xml version="1.0" encoding="utf-8"?>
<!-- Generator: Adobe Illustrator 19.0.0, SVG Export Plug-In . SVG Version: 6.00 Build 0)  -->
<svg version="1.1" id="Layer_1" xmlns="http://www.w3.org/2000/svg" xmlns:xlink="http://www.w3.org/1999/xlink" x="0px" y="0px"
	 viewBox="0 0 841.9 595.3" style="enable-background:new 0 0 841.9 595.3;" xml:space="preserve">
<g>
	<g>
		<path d="M597.5,308.8c-0.3,73.7-47,141.4-116.5,166.8c-69.9,25.5-150,3.8-197.6-53.3c-47.8-57.3-54.1-141.1-15.6-204.9
			c38.3-63.6,114.4-97.3,187.3-82.6c71.7,14.5,128.5,73.5,140.2,145.7C596.7,289.8,597.4,299.3,597.5,308.8c0,3.2,5,3.2,5,0
			c-0.3-76-48.6-145.5-120.2-171.6c-71.9-26.2-154.8-3.4-203.3,55.6c-48.6,59.2-55,145-15.2,210.6c39.6,65.3,117.7,99.4,192.6,84.3
			c73.7-14.9,132.4-76.2,143.9-150.5c1.5-9.4,2.2-18.9,2.2-28.4C602.5,305.6,597.5,305.6,597.5,308.8z"/>
	</g>
</g>
<g>
	<g>
		<g>
			<g>
				<path d="M299.4,327.6c2.8,0,5,0.9,6.8,2.6c0.1,0.1,0.2,0.4,0,0.5l-0.4,0.5c-0.2,0.2-0.3,0.1-0.5,0c-1.6-1.4-3.6-2.3-5.9-2.3
					c-4.9,0-8.7,4-8.7,8.8c0,4.8,3.8,8.7,8.7,8.7c2.4,0,4.2-0.9,5.9-2.3c0.2-0.1,0.3-0.1,0.4-0.1l0.5,0.5c0.1,0.1,0.1,0.3,0,0.5
					c-1.9,1.8-4.3,2.7-6.8,2.7c-5.6,0-10.1-4.4-10.1-10C289.3,332.1,293.8,327.6,299.4,327.6z"/>
				<path d="M311.2,347l8.6-19.4c0.1-0.1,0.2-0.2,0.3-0.2h0.1c0.1,0,0.3,0,0.4,0.2l8.5,19.4c0.1,0.2,0.1,0.3-0.3,0.3h-0.7
					c-0.2,0-0.3-0.1-0.4-0.3l-2.3-5.1h-10.6l-2.2,5.1c-0.1,0.1-0.2,0.3-0.4,0.3h-0.8C311.2,347.4,311.2,347.3,311.2,347z M325,340.9
					l-4.8-11.2h-0.1l-4.8,11.2H325z"/>
				<path d="M335.5,328.2c0-0.2,0.2-0.4,0.4-0.4h11.2c0.2,0,0.4,0.2,0.4,0.4v0.5c0,0.2-0.2,0.4-0.4,0.4h-10.2v8.5h8.8
					c0.2,0,0.4,0.2,0.4,0.4c0,0.3,0.1,0.8-0.4,0.8h-8.8l0,8.3c0,0.2-0.2,0.4-0.4,0.4h-0.5c-0.2,0-0.4-0.2-0.4-0.4V328.2z"/>
				<path d="M354.8,328.2c0-0.2,0.2-0.4,0.4-0.4h11.2c0.2,0,0.4,0.2,0.4,0.4v0.5c0,0.2-0.2,0.4-0.4,0.4h-10.2v7.7h8.8
					c0.2,0,0.4,0.2,0.4,0.4v0.5c0,0.2-0.2,0.4-0.4,0.4h-8.8v8.2h10.2c0.2,0,0.4,0.2,0.4,0.4v0.4c0,0.2-0.2,0.4-0.4,0.4h-11.2
					c-0.2,0-0.4-0.2-0.4-0.4V328.2z M358.3,325.5l-0.1-0.3c-0.1-0.1,0-0.3,0.2-0.4l4.6-2.5c0.1-0.1,0.4-0.1,0.5,0.1l0.3,0.6
					c0.1,0.2,0.1,0.3-0.1,0.4l-4.8,2.2C358.5,325.7,358.4,325.7,358.3,325.5z"/>
				<path d="M387.9,336.9l-0.4-0.4c-1.2-1.3-2.5-2.7-2.4-4.5c0-1.9,1.4-4.3,4.8-4.3c3,0,4.5,2,4.5,4.2c0,2.3-2.4,4.1-4.6,5.3
					l5.7,5.6c1.1-1.7,1.7-3.7,1.7-5.7c0-0.1,0-0.4,0-0.6s0.1-0.3,0.2-0.3h0.6c0.2,0,0.3,0.1,0.3,0.3c0.1,0.2,0.1,0.4,0.1,0.6
					c0,2.2-0.8,4.6-2,6.5l2.9,2.9c0.2,0.2,0.3,0.4,0.1,0.6l-0.4,0.4c-0.2,0.2-0.4,0.1-0.6-0.1l-2.8-2.8c-1.6,1.9-3.8,3.1-6.4,3.1
					c-3.3,0-5.3-2.4-5.3-5.1C383.8,339.6,385.9,338,387.9,336.9z M389.1,346.5c2.3,0,4.2-1.1,5.6-2.8l-6-6.1c-1.8,1-3.7,2.5-3.7,4.9
					C385,344.8,386.7,346.5,389.1,346.5z M393.1,331.8c0-1.6-1.1-3.1-3.4-3.1c-2.4,0-3.5,1.7-3.5,3.3c0,1.3,0.9,2.5,1.9,3.5
					c0.3,0.3,0.5,0.5,0.8,0.8C391,335.3,393.1,333.8,393.1,331.8z"/>
				<path d="M415.8,328.2c0-0.2,0.2-0.4,0.4-0.4h6c3.5,0,6.3,2.8,6.3,6.2c0,3.5-2.8,6.3-6.3,6.3h-5.1v6.6c0,0.2-0.2,0.4-0.4,0.4
					h-0.5c-0.2,0-0.4-0.2-0.4-0.4V328.2z M422.1,339.2c2.7,0,5-2.3,5-5.1c0-2.7-2.3-4.9-5.1-4.9h-5v10H422.1z"/>
				<path d="M435.7,328.2c0-0.2,0.2-0.4,0.4-0.4h0.6c0.2,0,0.4,0.2,0.4,0.4V347c0,0.2-0.2,0.4-0.4,0.4h-0.6c-0.2,0-0.4-0.2-0.4-0.4
					V328.2z"/>
				<path d="M444.2,346.5l11.3-17.4v-0.1h-10.1c-0.2,0-0.4-0.2-0.4-0.4v-0.4c0-0.2,0.2-0.4,0.4-0.4h11.5c0.2,0,0.4,0.2,0.4,0.4v0.4
					l-11.3,17.4v0h10.4c0.2,0,0.4,0.2,0.4,0.4v0.5c0,0.2-0.1,0.4-0.4,0.4h-11.7c-0.2,0-0.4-0.1-0.4-0.3V346.5z"/>
				<path d="M462.4,346.5l11.3-17.4v-0.1h-10.1c-0.2,0-0.4-0.2-0.4-0.4v-0.4c0-0.2,0.2-0.4,0.4-0.4h11.5c0.2,0,0.4,0.2,0.4,0.4v0.4
					l-11.3,17.4v0h10.4c0.2,0,0.4,0.2,0.4,0.4v0.5c0,0.2-0.1,0.4-0.4,0.4h-11.7c-0.2,0-0.4-0.1-0.4-0.3V346.5z"/>
				<path d="M482.7,328.2c0-0.2,0.2-0.4,0.4-0.4h11.2c0.2,0,0.4,0.2,0.4,0.4v0.5c0,0.2-0.2,0.4-0.4,0.4H484v7.7h8.8
					c0.2,0,0.4,0.2,0.4,0.4v0.5c0,0.2-0.2,0.4-0.4,0.4H484v8.2h10.2c0.2,0,0.4,0.2,0.4,0.4v0.4c0,0.2-0.2,0.4-0.4,0.4H483
					c-0.2,0-0.4-0.2-0.4-0.4V328.2z"/>
				<path d="M502.6,328.2c0-0.2,0.1-0.4,0.4-0.4h6.9c3.4,0,6.2,2.6,6.2,6c0,2.8-1.9,5.1-4.6,5.8l4.1,7.2c0.1,0.2,0.1,0.5-0.2,0.5
					h-0.9c-0.2,0-0.3-0.1-0.4-0.3l-4-7.3c-0.4,0-0.7,0-1,0H504v7.2c0,0.2-0.2,0.4-0.4,0.4H503c-0.2,0-0.4-0.2-0.4-0.4V328.2z
					 M509.9,338.7c2.7,0,4.9-2.1,4.9-4.8c0-2.6-2.3-4.7-5-4.7H504v9.5H509.9z"/>
				<path d="M522.4,325.5l-0.1-0.3c-0.1-0.1,0-0.3,0.2-0.4l4.6-2.5c0.1-0.1,0.4-0.1,0.5,0.1l0.3,0.6c0.1,0.2,0.1,0.3-0.1,0.4
					l-4.8,2.2C522.6,325.7,522.5,325.7,522.4,325.5z M524.1,328.2c0-0.2,0.2-0.4,0.4-0.4h0.6c0.2,0,0.4,0.2,0.4,0.4V347
					c0,0.2-0.2,0.4-0.4,0.4h-0.6c-0.2,0-0.4-0.2-0.4-0.4V328.2z"/>
				<path d="M531.9,347l8.6-19.4c0.1-0.1,0.2-0.2,0.3-0.2h0.1c0.1,0,0.3,0,0.4,0.2l8.5,19.4c0.1,0.2,0.1,0.3-0.3,0.3h-0.7
					c-0.2,0-0.3-0.1-0.4-0.3l-2.3-5.1h-10.6l-2.2,5.1c-0.1,0.1-0.2,0.3-0.4,0.3h-0.8C531.9,347.4,531.8,347.3,531.9,347z
					 M545.6,340.9l-4.8-11.2h-0.1l-4.8,11.2H545.6z"/>
			</g>
		</g>
		<g>
			<path d="M289.3,267.3c6.4,0,11,2,15.3,5.9c0.6,0.5,0.6,1.3,0.1,1.8l-3.9,4c-0.4,0.5-1.1,0.5-1.6,0c-2.7-2.3-6.2-3.7-9.8-3.7
				c-8.1,0-14.1,6.8-14.1,14.8c0,7.9,6.1,14.6,14.2,14.6c3.8,0,7-1.5,9.7-3.6c0.5-0.4,1.2-0.4,1.6,0l3.9,4.1
				c0.5,0.4,0.4,1.3-0.1,1.7c-4.3,4.2-9.8,6.1-15.4,6.1c-12.7,0-22.9-10.1-22.9-22.7S276.6,267.3,289.3,267.3z"/>
			<path d="M359.6,268.3c0.1-0.5,0.4-1,1.1-1h1c0.5,0,0.9,0.3,1.1,0.6l13.9,29.9c0.1,0,0.1,0,0.2,0l13.9-29.9
				c0.2-0.4,0.5-0.6,1.1-0.6h1c0.7,0,1.1,0.4,1.1,1l7.5,42.6c0.2,0.9-0.3,1.5-1.1,1.5h-5.8c-0.6,0-1.1-0.5-1.2-1l-3.7-24
				c-0.1,0-0.2,0-0.2,0l-11.1,24.9c-0.1,0.4-0.5,0.7-1.1,0.7h-1.1c-0.6,0-0.9-0.3-1.1-0.7L364,287.3c0,0-0.1,0-0.2,0l-3.7,24
				c-0.1,0.4-0.6,1-1.1,1h-5.7c-0.8,0-1.3-0.6-1.2-1.5L359.6,268.3z"/>
			<path d="M410.3,269.1c0-0.6,0.6-1.2,1.2-1.2h5.9c0.6,0,1.2,0.6,1.2,1.2v41.9c0,0.6-0.6,1.2-1.2,1.2h-5.9c-0.6,0-1.2-0.6-1.2-1.2
				V269.1z"/>
			<path d="M430.1,268.5c0-0.6,0.6-1.1,1.2-1.1h1.6l26.4,28h0.1v-26.2c0-0.6,0.5-1.2,1.2-1.2h5.8c0.6,0,1.2,0.6,1.2,1.2v42.6
				c0,0.6-0.6,1.1-1.2,1.1h-1.5l-26.5-29.1h-0.1v27.2c0,0.6-0.5,1.2-1.2,1.2h-5.8c-0.6,0-1.2-0.6-1.2-1.2V268.5z"/>
			<path d="M479.1,269.1c0-0.6,0.6-1.2,1.2-1.2h5.9c0.6,0,1.2,0.6,1.2,1.2v41.9c0,0.6-0.6,1.2-1.2,1.2h-5.9c-0.6,0-1.2-0.6-1.2-1.2
				V269.1z"/>
			<path d="M504.9,275.5h-9.7c-0.7,0-1.2-0.6-1.2-1.2v-5.2c0-0.6,0.5-1.2,1.2-1.2h27.7c0.7,0,1.2,0.6,1.2,1.2v5.2
				c0,0.6-0.5,1.2-1.2,1.2h-9.7v35.5c0,0.6-0.6,1.2-1.2,1.2h-5.9c-0.6,0-1.2-0.6-1.2-1.2V275.5z"/>
			<path d="M549.8,267.3c12.7,0,22.8,10.2,22.8,22.9s-10.1,22.7-22.8,22.7s-22.7-10.1-22.7-22.7S537.1,267.3,549.8,267.3z
				 M549.8,304.7c8,0,14.6-6.5,14.6-14.5c0-8-6.6-14.6-14.6-14.6s-14.5,6.7-14.5,14.6C535.3,298.2,541.8,304.7,549.8,304.7z"/>
			<path d="M349.2,310.6L329.7,268c-0.2-0.4-0.4-0.7-1.1-0.7H328c-0.6,0-0.9,0.3-1.1,0.7l-19.7,42.6c-0.4,0.8,0.1,1.6,1.1,1.6h5.5
				c1,0,1.6-0.6,1.8-1.3l1.1-2.4l0,0l7.6-17.1l0,0l3.7-8.2h0.2l4,8.8l0,0l0,0l2.3,5.2h0l5.4,11.9l0,0l0.9,1.9
				c0.4,0.9,0.9,1.3,1.8,1.3h5.5C349.1,312.3,349.6,311.5,349.2,310.6z"/>
		</g>
	</g>
</g>
<g>
	<g>
		<path d="M539.8,243.7c0-1.8,1.4-3.2,3.2-3.2c1.8,0,3.2,1.4,3.2,3.2s-1.4,3.2-3.2,3.2H295.1c-1.8,0-3.2-1.4-3.2-3.2
			s1.4-3.2,3.2-3.2c1.8,0,3.2,1.4,3.2,3.2"/>
	</g>
	<g>
		<line x1="542.2" y1="243.7" x2="295.4" y2="243.7"/>
	</g>
</g>
<g>
	<g>
		<path d="M298.3,372.3c0,1.8-1.4,3.2-3.2,3.2c-1.8,0-3.2-1.4-3.2-3.2c0-1.8,1.4-3.2,3.2-3.2H543c1.8,0,3.2,1.4,3.2,3.2
			c0,1.8-1.4,3.2-3.2,3.2c-1.8,0-3.2-1.4-3.2-3.2"/>
	</g>
	<g>
		<line x1="295.8" y1="372.3" x2="542.6" y2="372.3"/>
	</g>
</g>
<g>
	<g>
		<g>
			<path d="M346,127.6c-66.7,27.8-113.9,91.2-120.5,163.4c-2.3,24.9,0.3,50,7.4,73.9c0.5,1.5,2.9,0.9,2.4-0.7
				c-21.5-73.4,2.2-153.9,60.7-203.3c15.2-12.9,32.4-23.3,50.8-30.9C348.1,129.4,347.4,127,346,127.6L346,127.6z"/>
		</g>
	</g>
	<g>
		<g>
			<path d="M341,119.8c-71,29.6-121.3,97-128.4,173.8c-2.5,26.6,0.3,53.4,7.8,79.1c0.5,1.5,2.9,0.9,2.4-0.7
				c-23-78.2,2.3-164.1,64.6-216.7c16.3-13.7,34.6-24.9,54.2-33.1C343.2,121.6,342.5,119.2,341,119.8L341,119.8z"/>
		</g>
	</g>
	<g>
		<g>
			<g>
				<path d="M493.3,130c66.1,27.6,112.9,90.9,118.8,162.4c2,24.2-0.6,48.5-7.4,71.8c-0.5,1.5,2,2.2,2.4,0.7
					c21.9-74.6-2.5-156.7-62.4-206.6c-15.3-12.7-32.4-23-50.8-30.7C492.5,127,491.8,129.4,493.3,130L493.3,130z"/>
			</g>
		</g>
		<g>
			<g>
				<path d="M498.2,122.2c70.3,29.3,120.3,96.7,126.7,172.8c2.2,25.9-0.5,52-7.9,76.9c-0.5,1.5,2,2.2,2.4,0.7
					c23.3-79.5-2.7-166.9-66.3-220c-16.3-13.6-34.6-24.6-54.3-32.8C497.4,119.2,496.7,121.6,498.2,122.2L498.2,122.2z"/>
			</g>
		</g>
	</g>
</g>
<g>
	<g>
		<path d="M368.6,157.4c-0.1-0.2,0-0.4,0.2-0.4l7.1-2.2c0.2-0.1,0.4,0.1,0.4,0.2l0.6,1.9c0.1,0.2,0,0.4-0.2,0.4l-4.8,1.5l0.7,2.1
			l3.9-1.2c0.2-0.1,0.4,0.1,0.4,0.2l0.6,1.9c0.1,0.2-0.1,0.4-0.2,0.4l-3.9,1.2l0.7,2.3l4.8-1.5c0.2-0.1,0.4,0.1,0.4,0.2l0.6,1.9
			c0.1,0.2,0,0.4-0.2,0.4l-7.1,2.2c-0.2,0.1-0.4-0.1-0.4-0.2L368.6,157.4z"/>
		<path d="M384.1,163.9l0.5-1.6c0.1-0.3,0.4-0.3,0.6-0.2c0.1,0,1.5,0.7,2.7,0.4c0.7-0.1,1.1-0.7,1-1.3c-0.2-0.7-0.9-1.2-2.2-1.4
			c-1.6-0.3-3.8-1.1-4.2-3.2c-0.4-1.7,0.6-3.8,3.3-4.4c1.8-0.4,3.4,0.2,4,0.5c0.2,0.1,0.3,0.4,0.2,0.5l-0.6,1.5
			c-0.1,0.2-0.4,0.4-0.5,0.4c-0.2-0.1-1.7-0.8-2.7-0.5c-0.6,0.1-1,0.7-0.9,1.1c0.1,0.7,0.8,1,2.3,1.3c1.5,0.3,3.9,0.9,4.4,3.3
			c0.4,1.8-0.8,4-3.4,4.5c-2.3,0.5-3.8-0.2-4.3-0.5C384,164.2,384,164.2,384.1,163.9z"/>
		<path d="M398,153l-2.6,0.3c-0.2,0-0.4-0.1-0.4-0.3l-0.2-1.9c0-0.2,0.1-0.4,0.3-0.4l7.9-1c0.2,0,0.4,0.1,0.4,0.3l0.2,1.9
			c0,0.2-0.1,0.4-0.3,0.4l-2.6,0.3l1.2,9.5c0,0.2-0.1,0.4-0.3,0.4l-2.1,0.3c-0.2,0-0.4-0.1-0.4-0.3L398,153z"/>
		<path d="M409.3,158.6c0.9-0.1,1.8,0.7,1.8,1.6c0.1,0.9-0.7,1.7-1.6,1.8c-0.9,0.1-1.7-0.7-1.8-1.6
			C407.7,159.5,408.4,158.6,409.3,158.6z"/>
		<path d="M422.5,160.7c1.1-1.3,3.9-4.8,5.1-6.4c0.3-0.3,0.5-0.8,0.5-1.3c0-0.7-0.5-1.3-1.5-1.4c-0.7,0-1.4,0.5-1.8,0.8
			c-0.2,0.1-0.4,0.1-0.5,0l-1-1.2c-0.1-0.1-0.1-0.3,0-0.5c0,0,1.5-1.7,3.7-1.6c2.6,0.1,4,1.8,3.9,3.8c0,1-0.3,1.5-0.8,2.3
			c-0.6,1-2.2,2.9-3.1,4l3.2,0.2c0.2,0,0.3,0.2,0.3,0.4l-0.1,1.6c0,0.2-0.2,0.3-0.4,0.3l-7.2-0.3c-0.2,0-0.3-0.2-0.3-0.4
			L422.5,160.7z"/>
		<path d="M436,156.1c0.5-3.9,2.5-6,5.4-5.6c2.9,0.4,4.3,3,3.7,6.9c-0.5,3.9-2.5,6-5.4,5.6C436.8,162.6,435.5,160.1,436,156.1z
			 M442.3,157c0.3-2.3-0.1-3.7-1.2-3.9c-1.1-0.1-1.9,1.1-2.2,3.4c-0.3,2.4,0.1,3.7,1.2,3.9C441.2,160.6,442,159.3,442.3,157z"/>
		<path d="M452.5,156.5l-1.7-0.4c-0.2,0-0.3-0.2-0.2-0.4l0.2-1.1c0-0.1,0.1-0.2,0.2-0.2l3-1.4l1.6,0.4c0.2,0,0.3,0.2,0.2,0.4
			l-2.5,11.3c0,0.2-0.2,0.3-0.4,0.3l-2-0.4c-0.2,0-0.3-0.2-0.3-0.4L452.5,156.5z"/>
		<path d="M460.4,160.7c1.1-3.8,3.4-5.5,6.2-4.7c2.8,0.9,3.7,3.6,2.6,7.4c-1.1,3.8-3.4,5.5-6.2,4.7S459.2,164.5,460.4,160.7z
			 M466.4,162.5c0.7-2.3,0.5-3.7-0.6-4c-1.1-0.3-2,0.8-2.7,3c-0.7,2.3-0.5,3.7,0.6,4S465.7,164.8,466.4,162.5z"/>
	</g>
</g>
<path d="M612.8,308.8c0,1.6,2.5,1.6,2.5,0C615.3,307.2,612.8,307.2,612.8,308.8z"/>
<path d="M421.2,113.5c0-6.7,0-13.4,0-20.1c0-10.6,0-21.1,0-31.7c0-0.8-0.6-1.2-1.3-1.2s-1.3,0.4-1.3,1.2c0,10.6,0,21.1,0,31.7
	c0,6.7,0,13.4,0,20.1C419.6,113.5,420.4,113.5,421.2,113.5z"/>
<path d="M421.2,116c0-0.9,0-1.7,0-2.6c-0.8,0-1.7,0-2.5,0c0,0.9,0,1.7,0,2.6C419.6,116,420.4,116,421.2,116z"/>
<path d="M437.4,98.9c0-0.4,0.1-0.9,0.1-1.3c0.6-8.8,1.1-17.7,1.7-26.5c0-0.7-0.4-1.1-0.9-1.2c-0.5-0.1-1,0.2-1.1,0.7
	c-0.1,0.7-0.3,1.4-0.3,2.3c-0.6,8.4-1.1,16.8-1.6,25.2c0,0.4-0.1,0.9-0.1,1.3c-0.3,4.8-0.6,9.6-0.9,14.4c0.8,0.1,1.5,0.1,2.3,0.2
	C436.8,109.1,437.1,104,437.4,98.9z"/>
<path d="M436.3,116.7c0.1-0.9,0.1-1.7,0.2-2.6c-0.8-0.1-1.5-0.1-2.3-0.2c-0.1,0.9-0.1,1.7-0.2,2.6
	C434.7,116.6,435.5,116.6,436.3,116.7z"/>
<path d="M453.6,104.5c0.1-0.4,0.1-0.7,0.2-1.1c1.1-7.6,2.3-15.2,3.4-22.8c0.1-0.6-0.2-1-0.6-1.2c-0.4-0.2-0.8-0.1-1,0.2
	c-0.2,0.4-0.5,0.9-0.7,1.8c-1.2,7.2-2.2,14.5-3.3,21.7c-0.1,0.4-0.1,0.7-0.2,1.1c-0.6,3.8-1.2,7.6-1.7,11.5c0.7,0.1,1.4,0.2,2.2,0.3
	C452.4,112.2,453,108.3,453.6,104.5z"/>
<path d="M451.5,118.6c0.1-0.8,0.3-1.7,0.4-2.5c-0.7-0.1-1.4-0.2-2.2-0.3c-0.1,0.9-0.3,1.7-0.4,2.6
	C450,118.3,450.7,118.5,451.5,118.6z"/>
<path d="M467.3,119.2c0.8-3.1,1.7-6.1,2.5-9.2c0.1-0.3,0.2-0.6,0.2-0.9c1.7-6.4,3.4-12.7,5.2-19.1c0.1-0.5,0-0.9-0.3-1.1
	c-0.3-0.2-0.7-0.3-0.9-0.2c-0.4,0.1-0.8,0.4-1,1.2c-1.7,6-3.3,12.1-4.9,18.2c-0.1,0.3-0.2,0.6-0.2,0.9c-0.9,3.3-1.8,6.5-2.6,9.8
	c0.1,0,0.1,0,0.2,0.1C466,118.9,466.6,119.1,467.3,119.2z"/>
<path d="M466.6,121.7c0.2-0.8,0.4-1.6,0.6-2.4c-0.6-0.2-1.3-0.3-1.9-0.5c-0.1,0-0.2,0-0.2-0.1c-0.2,0.8-0.4,1.6-0.7,2.4
	C465.2,121.3,465.9,121.5,466.6,121.7z"/>
<path d="M486.2,114.8c2.3-5.1,4.6-10.3,6.9-15.4c0.7-1.5-1.5-2.7-2.2-1.3c-2.3,5.1-4.6,10.3-6.9,15.4c-1.4,3.1-2.8,6.2-4.2,9.3
	c0.8,0.3,1.6,0.5,2.4,0.8C483.6,120.7,484.9,117.8,486.2,114.8z"/>
<path d="M481.3,125.9c0.3-0.7,0.7-1.5,1-2.2c-0.8-0.3-1.6-0.5-2.4-0.8c-0.3,0.7-0.7,1.5-1,2.2C479.7,125.4,480.5,125.6,481.3,125.9z
	"/>
<path d="M404.9,99.5c0-0.4-0.1-0.9-0.1-1.3c-0.5-8.4-1-16.8-1.6-25.2c-0.1-0.9-0.2-1.7-0.3-2.3c-0.1-0.6-0.6-0.8-1.1-0.7
	c-0.5,0.1-1,0.5-0.9,1.2c0.6,8.8,1.1,17.7,1.7,26.5c0,0.4,0.1,0.9,0.1,1.3c0.3,5.1,0.7,10.2,1,15.2c0.8-0.1,1.5-0.1,2.3-0.2
	C405.5,109.2,405.2,104.4,404.9,99.5z"/>
<path d="M406,116.5c-0.1-0.8-0.1-1.7-0.2-2.5c-0.8,0.1-1.5,0.1-2.3,0.2c0.1,0.8,0.1,1.7,0.2,2.5C404.5,116.6,405.3,116.6,406,116.5z
	"/>
<path d="M388.6,104.2c-0.1-0.4-0.1-0.7-0.2-1.1c-1.1-7.2-2.1-14.5-3.3-21.7c-0.1-0.8-0.4-1.3-0.7-1.8c-0.2-0.3-0.6-0.4-1-0.2
	c-0.4,0.2-0.7,0.6-0.6,1.2c1.1,7.6,2.3,15.2,3.4,22.8c0.1,0.4,0.1,0.7,0.2,1.1c0.6,3.9,1.2,7.8,1.8,11.6c0.7-0.1,1.4-0.2,2.2-0.3
	C389.7,111.9,389.2,108.1,388.6,104.2z"/>
<path d="M390.7,118.2c-0.1-0.8-0.2-1.6-0.4-2.4c-0.7,0.1-1.4,0.2-2.2,0.3c0.1,0.8,0.2,1.6,0.4,2.4
	C389.3,118.4,390,118.3,390.7,118.2z"/>
<path d="M372.3,108.9c-0.1-0.3-0.2-0.6-0.2-0.9c-1.6-6.1-3.2-12.1-4.9-18.2c-0.2-0.7-0.6-1-1-1.2c-0.3-0.1-0.6,0-0.9,0.2
	c-0.3,0.2-0.5,0.6-0.3,1.1c1.7,6.4,3.4,12.7,5.2,19.1c0.1,0.3,0.2,0.6,0.2,0.9c0.8,3.1,1.7,6.2,2.5,9.3c0.7-0.2,1.4-0.4,2.2-0.5
	C374,115.5,373.1,112.2,372.3,108.9z"/>
<path d="M375.5,121.1c-0.2-0.8-0.4-1.6-0.6-2.3c-0.7,0.2-1.4,0.4-2.2,0.5c0.2,0.8,0.4,1.6,0.6,2.3
	C374.1,121.5,374.8,121.3,375.5,121.1z"/>
<path d="M355.9,113.6c-2.3-5.1-4.6-10.3-6.9-15.4c-0.7-1.5-2.8-0.2-2.2,1.3c2.3,5.1,4.6,10.3,6.9,15.4c1.3,2.9,2.6,5.9,3.9,8.8
	c0.8-0.3,1.6-0.5,2.4-0.8C358.7,119.8,357.3,116.7,355.9,113.6z"/>
<path d="M361.1,125.1c-0.3-0.7-0.7-1.5-1-2.2c-0.8,0.3-1.6,0.5-2.4,0.8c0.3,0.7,0.7,1.5,1,2.2C359.5,125.6,360.3,125.4,361.1,125.1z
	"/>
<g>
	<path d="M238.6,383.3c0.7,1.7,0.6,3.1,0,4.7c-0.1,0.2-0.3,0.3-0.5,0.2l-1.9-0.8c-0.2-0.1-0.2-0.3-0.2-0.4c0.3-0.8,0.3-1.8,0-2.6
		c-0.7-1.9-2.9-2.7-4.7-1.9c-1.9,0.7-2.8,2.8-2.1,4.6c0.3,0.8,0.9,1.5,1.7,1.9c0.1,0.1,0.2,0.3,0.2,0.4l-0.9,1.9
		c-0.1,0.2-0.3,0.2-0.5,0.2c-1.6-0.7-2.6-1.9-3.2-3.4c-1.3-3.3,0.3-7.1,3.6-8.4C233.5,378.3,237.2,379.9,238.6,383.3z"/>
	<path d="M230.9,396.9l13.4-0.3c0.1,0,0.3,0.1,0.3,0.2l0.1,0.2c0.1,0.1,0,0.3,0,0.4l-8.4,10.4c-0.2,0.2-0.4,0.2-0.6-0.1l-0.9-1.8
		c-0.1-0.3-0.1-0.5,0.1-0.8l1-1.2l-2.2-4.4l-1.6,0.1c-0.2,0-0.5-0.1-0.7-0.4l-0.9-1.8C230.5,397.2,230.7,396.9,230.9,396.9z
		 M237.7,401.9l2.1-2.5l0,0l-3.3,0.1L237.7,401.9z"/>
	<path d="M248,409.3l-1.3-2.2c-0.1-0.2,0-0.4,0.1-0.5l1.7-1c0.2-0.1,0.4,0,0.5,0.1l4,6.9c0.1,0.2,0,0.4-0.1,0.5l-1.7,1
		c-0.2,0.1-0.4,0-0.5-0.1l-1.3-2.2l-8.3,4.9c-0.2,0.1-0.4,0-0.5-0.1l-1.1-1.9c-0.1-0.2,0-0.4,0.1-0.5L248,409.3z"/>
	<path d="M256,417.9c0.1-0.1,0.4-0.1,0.5,0.1l4.2,6.1c0.1,0.2,0.1,0.4-0.1,0.5l-1.6,1.1c-0.1,0.1-0.4,0.1-0.5-0.1l-2.8-4.1l-1.8,1.3
		l2.3,3.4c0.1,0.1,0.1,0.4-0.1,0.5l-1.6,1.1c-0.2,0.1-0.4,0.1-0.5-0.1l-2.3-3.4l-2,1.4l2.8,4.1c0.1,0.2,0.1,0.4-0.1,0.5l-1.6,1.1
		c-0.1,0.1-0.4,0.1-0.5-0.1l-4.2-6.1c-0.1-0.2-0.1-0.4,0.1-0.5L256,417.9z"/>
	<path d="M264.5,429.8c0.1-0.1,0.4-0.1,0.5,0.1l3.4,4.2c1.4,1.7,1.1,4.1-0.6,5.5c-1.3,1-3,1-4.5,0.2l-2,4.8
		c-0.1,0.2-0.4,0.3-0.6,0.1l-1.5-1.9c-0.1-0.1-0.1-0.3-0.1-0.3l2.2-4.9l-0.8-1l-3.6,2.9c-0.1,0.1-0.4,0.1-0.5-0.1l-1.3-1.7
		c-0.1-0.2-0.1-0.4,0.1-0.5L264.5,429.8z M264,437.2c0.5,0.6,1.4,0.6,2,0.2s0.7-1.3,0.2-1.9l-1.7-2.1l-2.2,1.8L264,437.2z"/>
	<path d="M274.8,442c0.1-0.1,0.4-0.1,0.5,0l1.5,1.6c0.1,0.1,0.1,0.4,0,0.5l-8.8,8.1c-0.1,0.1-0.4,0.1-0.5,0l-1.5-1.6
		c-0.1-0.1-0.1-0.4,0-0.5L274.8,442z"/>
	<path d="M281.7,449.1c0.1-0.1,0.3-0.1,0.5,0l0.3,0.3l0.5,10l0,0l4.4-4.6c0.1-0.1,0.3-0.1,0.5,0l1.6,1.5c0.1,0.1,0.1,0.4,0,0.5
		l-8.3,8.8c-0.1,0.1-0.3,0.1-0.5,0l-0.2-0.2c0,0-0.1-0.2-0.1-0.2l-0.3-10.1l0,0l-4.6,4.9c-0.1,0.1-0.3,0.2-0.5,0l-1.6-1.5
		c-0.1-0.1-0.1-0.4,0-0.5L281.7,449.1z"/>
	<path d="M299.5,464.3c1.2,0.9,2.1,2.5,2.4,4c0,0.2-0.1,0.4-0.3,0.4l-2.1,0.3c-0.2,0-0.3-0.1-0.4-0.3c-0.1-0.9-0.6-1.6-1.3-2.1
		c-1.5-1.2-3.8-0.9-5,0.7c-1.2,1.5-1,3.8,0.6,5c0.4,0.3,0.9,0.6,1.4,0.8l0.6-0.8l-0.9-0.7c-0.2-0.1-0.2-0.3-0.1-0.5l1.1-1.4
		c0.1-0.2,0.3-0.2,0.5-0.1l2.8,2.2c0.1,0.1,0.2,0.3,0,0.5l-3,3.8c-0.1,0.1-0.2,0.1-0.3,0.1c0,0-2.2-0.2-4.2-1.8
		c-2.8-2.2-3.3-6.2-1.1-9.1C292.6,462.6,296.7,462.1,299.5,464.3z"/>
	<path d="M310.7,481c0.8-1.2,2.4-1.6,3.5-0.9c1.2,0.8,1.6,2.4,0.8,3.6c-0.7,1.2-2.3,1.5-3.6,0.8C310.4,483.7,310,482.1,310.7,481z"
		/>
	<path d="M331.6,487.9l-2.3-1.1c-0.2-0.1-0.2-0.3-0.2-0.5l0.9-1.8c0.1-0.2,0.3-0.2,0.5-0.2l7.2,3.5c0.2,0.1,0.2,0.3,0.2,0.5
		l-0.9,1.8c-0.1,0.2-0.3,0.2-0.5,0.2l-2.3-1.1l-4.2,8.6c-0.1,0.2-0.3,0.2-0.5,0.2l-1.9-0.9c-0.2-0.1-0.2-0.3-0.2-0.5L331.6,487.9z"
		/>
	<path d="M336.6,500.7l9.8-9.1c0.1-0.1,0.2-0.1,0.4-0.1l0.2,0.1c0.1,0,0.2,0.2,0.2,0.3l0.7,13.3c0,0.3-0.2,0.4-0.5,0.3l-1.9-0.7
		c-0.3-0.1-0.4-0.3-0.4-0.7l-0.1-1.6l-4.5-1.8l-1.1,1.1c-0.2,0.2-0.4,0.3-0.8,0.2l-1.8-0.7C336.4,501.2,336.4,500.9,336.6,500.7z
		 M344.9,499.9l-0.2-3.3l0,0l-2.4,2.3L344.9,499.9z"/>
	<path d="M357.3,496.2c0.1-0.2,0.3-0.4,0.5-0.3l2,0.6c0.2,0.1,0.4,0.3,0.3,0.5l-1.4,4.5l5.3-3.6c0.1-0.1,0.3-0.1,0.4-0.1l2.2,0.7
		c0.3,0.1,0.4,0.5,0.1,0.7l-5.6,3.8l2.6,7.1c0.1,0.3-0.2,0.6-0.5,0.5l-2.4-0.7c-0.1,0-0.3-0.2-0.3-0.2l-2.3-6.6l-1.6,5.1
		c-0.1,0.2-0.3,0.4-0.5,0.3l-2-0.6c-0.2-0.1-0.4-0.3-0.3-0.5L357.3,496.2z"/>
	<path d="M372.8,500.5c0-0.2,0.2-0.3,0.4-0.3l7.3,1.6c0.2,0,0.3,0.2,0.3,0.4l-0.4,1.9c0,0.2-0.2,0.3-0.4,0.3l-4.9-1.1l-0.5,2.2
		l4,0.9c0.2,0,0.3,0.2,0.3,0.4l-0.4,1.9c0,0.2-0.2,0.3-0.4,0.3l-4-0.9l-0.5,2.4l4.9,1.1c0.2,0,0.3,0.2,0.3,0.4l-0.4,1.9
		c0,0.2-0.2,0.3-0.4,0.3l-7.3-1.6c-0.2,0-0.3-0.2-0.3-0.4L372.8,500.5z"/>
	<path d="M392,516.2l6.8-11.5c0.1-0.1,0.2-0.2,0.3-0.2l0.2,0c0.1,0,0.2,0.1,0.3,0.2l4.4,12.6c0.1,0.2-0.1,0.5-0.4,0.4l-2-0.2
		c-0.3,0-0.5-0.2-0.6-0.5l-0.5-1.5l-4.9-0.5l-0.8,1.4c-0.1,0.2-0.3,0.4-0.7,0.4l-2-0.2C392,516.7,391.9,516.4,392,516.2z
		 M399.8,513.1l-1.1-3.1l0,0l-1.6,2.8L399.8,513.1z"/>
	<path d="M409,506.1c-0.1-0.3,0.1-0.4,0.3-0.4l2.1,0c0.1,0,0.3,0.1,0.3,0.3l1.4,6.1l0.1,0l2.9-6.3c0.1-0.1,0.2-0.2,0.3-0.2l0.3,0
		c0.2,0,0.3,0.1,0.3,0.2l2.7,6.4l0.1,0l1.6-6.1c0-0.1,0.2-0.2,0.3-0.2l2.1,0c0.3,0,0.4,0.2,0.3,0.4l-3.6,12c0,0.1-0.2,0.2-0.3,0.2
		l-0.3,0c-0.1,0-0.3-0.1-0.3-0.2l-3.2-7.4l-0.1,0l-3.4,7.3c-0.1,0.1-0.2,0.2-0.3,0.2l-0.3,0c-0.1,0-0.3-0.1-0.3-0.3L409,506.1z"/>
	<path d="M428.9,517.8l4.7-12.5c0-0.1,0.2-0.2,0.3-0.2l0.2,0c0.1,0,0.3,0.1,0.3,0.2l6.5,11.7c0.1,0.2,0,0.5-0.3,0.5l-2,0.1
		c-0.3,0-0.5-0.1-0.7-0.4l-0.7-1.4l-4.9,0.4l-0.5,1.5c-0.1,0.2-0.3,0.5-0.6,0.5l-2,0.1C428.9,518.3,428.8,518,428.9,517.8z
		 M436,513.4l-1.6-2.9l0,0l-1.1,3.1L436,513.4z"/>
	<path d="M447.7,510.4l-4.8-5.4c-0.2-0.2-0.1-0.5,0.2-0.6l2.3-0.3c0.1,0,0.2,0.1,0.3,0.1l3,3.3l1.9-4c0-0.1,0.1-0.2,0.3-0.2l2.3-0.3
		c0.3,0,0.5,0.2,0.4,0.5l-3.1,6.5l0.8,5.7c0,0.2-0.1,0.4-0.3,0.4l-2.1,0.3c-0.2,0-0.4-0.1-0.4-0.3L447.7,510.4z"/>
	<path d="M467.7,507c-0.4-1.4,0.5-2.8,1.8-3.2c1.4-0.4,2.8,0.5,3.2,1.9c0.3,1.3-0.5,2.8-1.9,3.1C469.5,509.1,468.1,508.3,467.7,507z
		"/>
	<path d="M487.5,506.6l1-13.3c0-0.1,0.1-0.2,0.2-0.3l0.2-0.1c0.1,0,0.3,0,0.4,0.1l9.6,9.3c0.2,0.2,0.1,0.5-0.1,0.5l-1.9,0.7
		c-0.3,0.1-0.5,0.1-0.7-0.2l-1.1-1.1l-4.6,1.7l-0.1,1.6c0,0.2-0.1,0.5-0.5,0.6l-1.9,0.7C487.7,507,487.5,506.8,487.5,506.6z
		 M493.1,500.4l-2.3-2.3l0,0l-0.2,3.3L493.1,500.4z"/>
	<path d="M499.6,489.1c-0.1-0.2,0-0.4,0.2-0.5l4.9-2.3c1.9-0.9,4.3-0.1,5.2,1.8c0.7,1.5,0.3,3.2-0.8,4.4l4.2,3.1
		c0.2,0.2,0.2,0.5-0.1,0.6l-2.2,1c-0.1,0.1-0.3,0-0.3,0l-4.2-3.3l-1.1,0.5l2,4.1c0.1,0.2,0,0.4-0.2,0.5l-1.9,0.9
		c-0.2,0.1-0.4,0-0.5-0.2L499.6,489.1z M506.8,491.3c0.7-0.3,0.9-1.2,0.6-1.9c-0.3-0.7-1.2-1-1.8-0.6l-2.4,1.1l1.2,2.5L506.8,491.3z
		"/>
	<path d="M514,481.9c-0.1-0.2,0-0.4,0.1-0.5l4.6-2.7c1.9-1.1,4.3-0.5,5.3,1.4c0.8,1.4,0.6,3.1-0.5,4.5l4.4,2.7
		c0.2,0.1,0.3,0.5,0,0.6l-2.1,1.2c-0.1,0.1-0.3,0-0.3,0l-4.5-2.9l-1.1,0.6l2.3,4c0.1,0.2,0,0.4-0.1,0.5l-1.9,1.1
		c-0.2,0.1-0.4,0-0.5-0.1L514,481.9z M521.3,483.5c0.6-0.4,0.8-1.3,0.5-1.9c-0.4-0.7-1.2-0.9-1.9-0.5l-2.3,1.3l1.4,2.4L521.3,483.5z
		"/>
	<path d="M533.1,484.2l-2.3-13.2c0-0.1,0-0.3,0.1-0.3l0.1-0.1c0.1-0.1,0.3-0.1,0.4,0l11.5,6.7c0.2,0.1,0.2,0.4,0,0.6l-1.6,1.1
		c-0.3,0.2-0.4,0.2-0.8,0l-1.3-0.8l-4,2.8l0.3,1.6c0,0.2,0,0.5-0.3,0.7l-1.6,1.1C533.4,484.5,533.2,484.4,533.1,484.2z M537,476.8
		l-2.8-1.7l0,0l0.6,3.2L537,476.8z"/>
	<path d="M540.4,464.1c-0.1-0.1-0.1-0.4,0.1-0.5l0.3-0.3l9.9,0.7l0,0l-4.1-4.9c-0.1-0.1-0.1-0.4,0-0.5l1.7-1.4
		c0.1-0.1,0.4-0.1,0.5,0l7.8,9.3c0.1,0.1,0.1,0.4-0.1,0.5l-0.2,0.2c0,0-0.2,0.1-0.2,0.1l-10-0.9l0,0l4.3,5.2c0.1,0.1,0.1,0.4,0,0.5
		l-1.6,1.4c-0.1,0.1-0.4,0.1-0.5,0L540.4,464.1z"/>
	<path d="M557.7,448.2c1.1-1.1,2.7-1.8,4.3-1.9c0.2,0,0.4,0.1,0.4,0.3l0.1,2.1c0,0.2-0.2,0.3-0.3,0.4c-0.9,0-1.7,0.4-2.3,1.1
		c-1.4,1.4-1.3,3.7,0.1,5.1c1.4,1.4,3.7,1.4,5.1,0c0.4-0.4,0.7-0.8,0.9-1.3l-0.7-0.7l-0.8,0.8c-0.1,0.1-0.3,0.1-0.5,0l-1.3-1.3
		c-0.1-0.1-0.1-0.3,0-0.5l2.6-2.6c0.1-0.1,0.3-0.1,0.5,0l3.4,3.4c0.1,0.1,0.1,0.2,0.1,0.3c0,0-0.5,2.1-2.3,4c-2.5,2.5-6.6,2.5-9.1,0
		C555.2,454.8,555.2,450.7,557.7,448.2z"/>
	<path d="M565.7,440.5c-0.1-0.1-0.2-0.3,0-0.5l4.8-5.7c0.1-0.2,0.3-0.2,0.5,0l1.5,1.3c0.1,0.1,0.2,0.3,0,0.5l-3.2,3.8l1.7,1.5
		l2.7-3.1c0.1-0.1,0.3-0.2,0.5,0l1.5,1.3c0.2,0.1,0.2,0.3,0,0.5l-2.7,3.1l1.8,1.6l3.2-3.8c0.1-0.2,0.3-0.2,0.5,0l1.5,1.3
		c0.1,0.1,0.2,0.3,0,0.5l-4.8,5.7c-0.1,0.2-0.3,0.2-0.5,0L565.7,440.5z"/>
	<path d="M575.5,428.2c-0.1-0.1-0.1-0.3,0-0.4l0.2-0.2c0.1-0.1,0.2-0.2,0.3-0.1l8.8,1.1l0,0l-3.9-7.9c-0.1-0.1,0-0.3,0-0.4l0.2-0.2
		c0.1-0.1,0.3-0.2,0.4-0.1l11,5.4c0.2,0.1,0.2,0.3,0.1,0.5l-1.2,1.7c-0.1,0.1-0.3,0.2-0.4,0.1l-5-2.6l0,0l3,5.9c0.1,0.1,0,0.3,0,0.4
		l-0.2,0.3c-0.1,0.1-0.2,0.2-0.3,0.1l-6.5-0.9l0,0l4.1,3.9c0.1,0.1,0.1,0.3,0,0.4l-1.2,1.7c-0.1,0.2-0.4,0.2-0.5,0L575.5,428.2z"/>
	<path d="M586.1,413c-0.2-0.1-0.2-0.3-0.1-0.5l3.8-6.4c0.1-0.2,0.3-0.2,0.5-0.1l1.7,1c0.2,0.1,0.2,0.3,0.1,0.5l-2.5,4.3l1.9,1.1
		l2.1-3.5c0.1-0.2,0.3-0.2,0.5-0.1l1.7,1c0.2,0.1,0.2,0.3,0.1,0.5l-2.1,3.5l2.1,1.2l2.5-4.3c0.1-0.2,0.3-0.2,0.5-0.1l1.7,1
		c0.2,0.1,0.2,0.3,0.1,0.5l-3.8,6.4c-0.1,0.2-0.3,0.2-0.5,0.1L586.1,413z"/>
	<path d="M593.2,400.3c-0.2-0.1-0.2-0.3-0.1-0.4l0.2-0.4l9.3-3.5l0,0l-5.8-2.8c-0.2-0.1-0.2-0.3-0.2-0.5l0.9-1.9
		c0.1-0.2,0.3-0.2,0.5-0.2l10.9,5.3c0.2,0.1,0.2,0.3,0.1,0.4l-0.1,0.3c0,0-0.1,0.2-0.2,0.2l-9.5,3.3l0,0l6,2.9
		c0.2,0.1,0.2,0.3,0.2,0.5l-0.9,1.9c-0.1,0.2-0.3,0.2-0.5,0.2L593.2,400.3z"/>
	<path d="M603.5,383.4l-0.9,2.4c-0.1,0.2-0.3,0.3-0.4,0.2l-1.8-0.7c-0.2-0.1-0.3-0.3-0.2-0.4l2.9-7.5c0.1-0.2,0.3-0.3,0.4-0.2
		l1.8,0.7c0.2,0.1,0.3,0.3,0.2,0.4l-0.9,2.4l9,3.5c0.2,0.1,0.3,0.3,0.2,0.4l-0.8,2c-0.1,0.2-0.3,0.3-0.4,0.2L603.5,383.4z"/>
</g>
</svg>
